# xmcd
#
# Track frame offsets:
# 151
# 19109
# 39876
# 58562
# 72541
# 91306
# 112253
# 133368
# 154081
# 169304
#
# Disc length: 2437 seconds
#
#
# Revision: 0
# Processed by: cddbd v1.5.1PL2 Copyright (c) Steve Scherf et al.
# Submitted via: FreeRIP 2.943 
#
DISCID=8c09830a
DTITLE=Bryan Duncan and The NehoSoul Band - A NehoSoul Christmas
DYEAR=1900
DGENRE=Blues/Christmas
TTITLE0=Christmas Comes But Once A Year
TTITLE1=Silent Night
TTITLE2=This Christmas
TTITLE3=Winter Wonderland
TTITLE4=Christmas Time Is Here
TTITLE5=Little Drummer Boy
TTITLE6=O Holy Night
TTITLE7=Peace
TTITLE8=Have Yourself A Merry Little Christmas
TTITLE9=What A Wonderful World
EXTD=bryanduncan.com
EXTT0=
EXTT1=
EXTT2=
EXTT3=
EXTT4=
EXTT5=
EXTT6=
EXTT7=
EXTT8=
EXTT9=
PLAYORDER=
